<svg width="817" height="780" viewBox="0 0 817 780" fill="none" xmlns="http://www.w3.org/2000/svg">
<path d="M719.713 774.584C717.305 773.463 561.49 699.317 409.012 701.26C256.316 699.372 100.501 773.517 98.0933 774.639C209.531 671.93 397.932 667.278 408.246 667.087H409.012C409.012 667.087 605.129 669.03 719.713 774.584Z" fill="#DADADA"/>
<path d="M804.966 404.103C801.656 404.103 797.606 404.103 792.9 404.103H789.59L783.297 404.267H782.203C707.756 406.757 525.019 428.125 408.821 571.436C292.076 428.179 109.338 406.811 34.8917 404.322H33.7973L27.5045 404.13L24.1939 404.075C19.488 404.021 15.4387 404.048 12.1282 404.103C5.3976 404.185 1.704 404.431 1.704 404.431V487.496C264.716 518.358 399.792 658.113 408 666.677L408.164 666.896L408.356 666.704V666.075L408.657 666.403L408.958 666.075V666.704L409.149 666.896L409.313 666.677C417.275 658.113 552.379 518.358 815.39 487.496V404.431C815.39 404.431 811.697 404.185 804.966 404.103ZM704.281 479.78C511.175 526.676 417.001 633.133 408.547 643.147C400.038 633.133 305.92 526.676 112.813 479.78H113.798H115.604C138.531 480.492 295.715 489.302 408.766 595.65H408.903C521.407 489.329 678.563 480.519 701.491 479.808H703.296H704.281V479.78Z" fill="#24ABB9"/>
<path d="M355.258 243V320H337.438V288.43H302.458V320H284.638V243H302.458V273.36H337.438V243H355.258ZM373.476 243H391.296V320H373.476V243ZM427.389 257.3V277.65H463.029V291.95H427.389V320H409.569V243H467.759V257.3H427.389ZM542.193 305.48V320H474.873V308.45L517.113 257.52H475.753V243H540.543V254.55L498.413 305.48H542.193Z" fill="#051E32"/>
<path d="M621.025 358.685C642.284 366.209 660.998 365.689 674.788 345.634C685.896 329.437 685.376 313.432 675.143 297.262C662.749 277.754 644.61 276.66 624.199 282.323C636.538 259.943 661.108 253.076 680.971 267.713C692.106 275.921 700.67 287.604 710.52 297.618C719.932 307.221 729.48 316.77 737.387 324.622C725.705 335.566 712.326 348.535 698.427 360.983C691.535 367.575 683.927 373.375 675.745 378.275C654.842 389.848 632.188 381.75 621.025 358.685Z" fill="#051E32"/>
<path d="M584.026 200.566C605.006 192.297 618.789 179.627 616.039 155.445C613.796 135.933 602.903 124.195 584.572 118.704C562.42 112.113 548.012 123.188 536.323 140.852C530.953 115.866 544.99 94.5646 569.584 92.5802C583.373 91.4693 597.501 94.668 611.504 95.7635C624.908 96.8366 638.379 97.7786 649.498 98.5174C647.861 114.441 646.272 133.006 643.949 151.52C643.072 161.017 641.136 170.385 638.175 179.451C629.993 201.899 607.582 210.649 584.026 200.566Z" fill="#24ABB9"/>
<path d="M240.338 200.566C219.358 192.297 205.575 179.627 208.325 155.445C210.568 135.933 221.461 124.195 239.792 118.704C261.944 112.113 276.352 123.188 288.041 140.852C293.411 115.866 279.374 94.5646 254.779 92.5802C240.99 91.4693 226.863 94.668 212.86 95.7635C199.456 96.8366 185.985 97.7786 174.866 98.5174C176.503 114.441 178.092 133.006 180.415 151.52C181.292 161.017 183.228 170.385 186.188 179.451C194.371 201.899 216.782 210.649 240.338 200.566Z" fill="#24ABB9"/>
<path d="M82.416 324.868C90.624 316.66 100.419 306.783 110.159 296.851C119.899 286.92 128.025 275.921 138.778 267.905C158.668 253.158 182.335 259.478 196.234 282.351C175.139 276.496 156.698 277.891 144.496 298.165C134.126 315.402 134.893 331.188 146.849 347.55C160.529 366.209 178.751 365.771 198.833 358.767C188.901 381.449 165.426 390.313 144.769 378.275C133.99 371.982 125.043 362.433 115.494 354.116C103.757 344.102 92.4571 333.815 82.416 324.868Z" fill="#051E32"/>
<path d="M372.104 115.4C347.48 101.118 341.324 76.9592 356.673 55.7005C363.239 46.6169 372.159 39.2845 380.038 31.0765L409.642 0.488007C421.68 12.1707 435.716 25.112 449.068 38.9288C455.911 45.5717 461.862 53.0766 466.77 61.2545C477.714 80.6528 470.436 101.611 448.137 115.592C455.059 92.7459 453.39 73.5119 431.475 60.8715C414.32 50.8578 398.424 53.2655 383.212 64.4831C365.702 77.096 365.866 94.7706 372.104 115.4Z" fill="#051E32"/>
<path d="M288.437 39.5307C311.529 38.2721 326.276 70.9126 320.093 97.7801C291.884 86.754 278.505 62.8414 288.437 39.5307Z" fill="#051E32"/>
<path d="M530.792 39.476C546.879 58.2723 523.158 90.5571 499.984 97.7528C494.102 67.4926 506.523 43.9631 530.792 39.476Z" fill="#051E32"/>
<path d="M122.909 204.457C144.523 191.214 169.093 200.435 185.235 227.248C158.395 237.973 131.883 228.616 122.909 204.457Z" fill="#051E32"/>
<path d="M696.785 204.621C689.343 228.151 665.731 237.07 635.17 227.85C645.512 204.429 681.272 187.193 696.785 204.621Z" fill="#051E32"/>
<path d="M410.107 145.742C400.203 128.177 392.788 113.211 400.312 95.8922C401.981 92.0618 406.906 87.0276 410.107 87.1644C413.308 87.3012 418.178 92.3354 419.847 96.2479C427.234 113.594 419.546 128.369 410.107 145.742Z" fill="#24ABB9"/>
<path d="M257.229 383.1C256.529 383.92 255.709 384.54 254.769 384.96C253.849 385.38 252.839 385.59 251.739 385.59C250.299 385.59 248.979 385.26 247.779 384.6C246.579 383.96 245.209 382.84 243.669 381.24C241.729 381.08 239.989 380.52 238.449 379.56C236.909 378.58 235.709 377.31 234.849 375.75C233.989 374.17 233.559 372.42 233.559 370.5C233.559 368.46 234.049 366.62 235.029 364.98C236.009 363.32 237.359 362.03 239.079 361.11C240.799 360.17 242.729 359.7 244.869 359.7C247.009 359.7 248.939 360.17 250.659 361.11C252.379 362.03 253.729 363.31 254.709 364.95C255.689 366.59 256.179 368.44 256.179 370.5C256.179 372.16 255.849 373.7 255.189 375.12C254.529 376.52 253.609 377.72 252.429 378.72C251.249 379.7 249.879 380.41 248.319 380.85C248.899 381.47 249.469 381.92 250.029 382.2C250.589 382.48 251.189 382.62 251.829 382.62C253.209 382.62 254.409 382.06 255.429 380.94L257.229 383.1ZM237.489 370.5C237.489 371.9 237.809 373.17 238.449 374.31C239.089 375.43 239.969 376.31 241.089 376.95C242.209 377.57 243.469 377.88 244.869 377.88C246.269 377.88 247.529 377.57 248.649 376.95C249.769 376.31 250.649 375.43 251.289 374.31C251.929 373.17 252.249 371.9 252.249 370.5C252.249 369.1 251.929 367.84 251.289 366.72C250.649 365.58 249.769 364.7 248.649 364.08C247.529 363.44 246.269 363.12 244.869 363.12C243.469 363.12 242.209 363.44 241.089 364.08C239.969 364.7 239.089 365.58 238.449 366.72C237.809 367.84 237.489 369.1 237.489 370.5ZM269.343 381.3C266.443 381.3 264.183 380.49 262.563 378.87C260.943 377.23 260.133 374.89 260.133 371.85V360H264.033V371.7C264.033 375.82 265.813 377.88 269.373 377.88C272.913 377.88 274.683 375.82 274.683 371.7V360H278.523V371.85C278.523 374.89 277.713 377.23 276.093 378.87C274.493 380.49 272.243 381.3 269.343 381.3ZM297.725 381L293.435 374.85C293.255 374.87 292.985 374.88 292.625 374.88H287.885V381H283.985V360H292.625C294.445 360 296.025 360.3 297.365 360.9C298.725 361.5 299.765 362.36 300.485 363.48C301.205 364.6 301.565 365.93 301.565 367.47C301.565 369.05 301.175 370.41 300.395 371.55C299.635 372.69 298.535 373.54 297.095 374.1L301.925 381H297.725ZM297.635 367.47C297.635 366.13 297.195 365.1 296.315 364.38C295.435 363.66 294.145 363.3 292.445 363.3H287.885V371.67H292.445C294.145 371.67 295.435 371.31 296.315 370.59C297.195 369.85 297.635 368.81 297.635 367.47ZM306.798 358.53C307.498 358.53 308.078 358.76 308.538 359.22C308.998 359.68 309.228 360.27 309.228 360.99C309.228 361.35 309.178 361.7 309.078 362.04C308.998 362.38 308.828 362.89 308.568 363.57L307.008 367.83H304.578L305.778 363.21C305.338 363.05 304.988 362.78 304.728 362.4C304.488 362 304.368 361.53 304.368 360.99C304.368 360.27 304.598 359.68 305.058 359.22C305.518 358.76 306.098 358.53 306.798 358.53ZM323.063 381.3C320.923 381.3 318.993 380.84 317.273 379.92C315.553 378.98 314.203 377.69 313.223 376.05C312.243 374.39 311.753 372.54 311.753 370.5C311.753 368.46 312.243 366.62 313.223 364.98C314.203 363.32 315.553 362.03 317.273 361.11C318.993 360.17 320.923 359.7 323.063 359.7C325.203 359.7 327.133 360.17 328.853 361.11C330.573 362.03 331.923 363.31 332.903 364.95C333.883 366.59 334.373 368.44 334.373 370.5C334.373 372.56 333.883 374.41 332.903 376.05C331.923 377.69 330.573 378.98 328.853 379.92C327.133 380.84 325.203 381.3 323.063 381.3ZM323.063 377.88C324.463 377.88 325.723 377.57 326.843 376.95C327.963 376.31 328.843 375.43 329.483 374.31C330.123 373.17 330.443 371.9 330.443 370.5C330.443 369.1 330.123 367.84 329.483 366.72C328.843 365.58 327.963 364.7 326.843 364.08C325.723 363.44 324.463 363.12 323.063 363.12C321.663 363.12 320.403 363.44 319.283 364.08C318.163 364.7 317.283 365.58 316.643 366.72C316.003 367.84 315.683 369.1 315.683 370.5C315.683 371.9 316.003 373.17 316.643 374.31C317.283 375.43 318.163 376.31 319.283 376.95C320.403 377.57 321.663 377.88 323.063 377.88ZM357.167 360V381H353.957L342.377 366.78V381H338.507V360H341.717L353.297 374.22V360H357.167ZM384.705 376.14H374.205L372.135 381H368.115L377.565 360H381.405L390.885 381H386.805L384.705 376.14ZM383.415 373.08L379.455 363.9L375.525 373.08H383.415ZM400.785 372.21L397.455 375.63V381H393.555V360H397.455V370.77L407.835 360H412.215L403.395 369.39L412.755 381H408.195L400.785 372.21ZM428.123 376.14H417.623L415.553 381H411.533L420.983 360H424.823L434.303 381H430.223L428.123 376.14ZM426.833 373.08L422.873 363.9L418.943 373.08H426.833ZM436.973 360H446.153C448.393 360 450.383 360.44 452.123 361.32C453.863 362.18 455.213 363.41 456.173 365.01C457.133 366.59 457.613 368.42 457.613 370.5C457.613 372.58 457.133 374.42 456.173 376.02C455.213 377.6 453.863 378.83 452.123 379.71C450.383 380.57 448.393 381 446.153 381H436.973V360ZM445.973 377.7C447.513 377.7 448.863 377.41 450.023 376.83C451.203 376.23 452.103 375.39 452.723 374.31C453.363 373.21 453.683 371.94 453.683 370.5C453.683 369.06 453.363 367.8 452.723 366.72C452.103 365.62 451.203 364.78 450.023 364.2C448.863 363.6 447.513 363.3 445.973 363.3H440.873V377.7H445.973ZM477.508 377.73V381H461.758V360H477.088V363.27H465.658V368.73H475.798V371.94H465.658V377.73H477.508ZM501.146 381L501.116 367.08L494.216 378.6H492.476L485.576 367.26V381H481.856V360H485.066L493.406 373.92L501.596 360H504.806L504.836 381H501.146ZM510.508 360H514.408V381H510.508V360ZM529.149 373.59V381H525.249V373.65L516.999 360H521.169L527.319 370.23L533.529 360H537.369L529.149 373.59ZM552.283 376.14H541.783L539.713 381H535.693L545.143 360H548.983L558.463 381H554.383L552.283 376.14ZM550.993 373.08L547.033 363.9L543.103 373.08H550.993ZM567.643 381.3C566.023 381.3 564.453 381.07 562.933 380.61C561.433 380.15 560.243 379.54 559.363 378.78L560.713 375.75C561.573 376.43 562.623 376.99 563.863 377.43C565.123 377.85 566.383 378.06 567.643 378.06C569.203 378.06 570.363 377.81 571.123 377.31C571.903 376.81 572.293 376.15 572.293 375.33C572.293 374.73 572.073 374.24 571.633 373.86C571.213 373.46 570.673 373.15 570.013 372.93C569.353 372.71 568.453 372.46 567.313 372.18C565.713 371.8 564.413 371.42 563.413 371.04C562.433 370.66 561.583 370.07 560.863 369.27C560.163 368.45 559.813 367.35 559.813 365.97C559.813 364.81 560.123 363.76 560.743 362.82C561.383 361.86 562.333 361.1 563.593 360.54C564.873 359.98 566.433 359.7 568.273 359.7C569.553 359.7 570.813 359.86 572.053 360.18C573.293 360.5 574.363 360.96 575.263 361.56L574.033 364.59C573.113 364.05 572.153 363.64 571.153 363.36C570.153 363.08 569.183 362.94 568.243 362.94C566.703 362.94 565.553 363.2 564.793 363.72C564.053 364.24 563.683 364.93 563.683 365.79C563.683 366.39 563.893 366.88 564.313 367.26C564.753 367.64 565.303 367.94 565.963 368.16C566.623 368.38 567.523 368.63 568.663 368.91C570.223 369.27 571.503 369.65 572.503 370.05C573.503 370.43 574.353 371.02 575.053 371.82C575.773 372.62 576.133 373.7 576.133 375.06C576.133 376.22 575.813 377.27 575.173 378.21C574.553 379.15 573.603 379.9 572.323 380.46C571.043 381.02 569.483 381.3 567.643 381.3ZM580.001 360H583.901V381H580.001V360Z" fill="#24ABB9"/>
</svg>
