<svg width="500" height="500" viewBox="0 0 500 500" fill="none" xmlns="http://www.w3.org/2000/svg">
<rect width="500" height="500" fill="#24ABB9"/>
<path d="M363.93 390.93C363.05 390.52 306.1 363.42 250.37 364.13C194.56 363.44 137.61 390.54 136.73 390.95C177.46 353.41 246.32 351.71 250.09 351.64H250.37C250.37 351.64 322.05 352.35 363.93 390.93Z" fill="#DADADA"/>
<path d="M395.09 255.52C393.88 255.52 392.4 255.52 390.68 255.52H389.47L387.17 255.58H386.77C359.56 256.49 292.77 264.3 250.3 316.68C207.63 264.32 140.84 256.51 113.63 255.6H113.23L110.93 255.53L109.72 255.51C108 255.49 106.52 255.5 105.31 255.52C102.85 255.55 101.5 255.64 101.5 255.64V286C197.63 297.28 247 348.36 250 351.49L250.06 351.57L250.13 351.5V351.27L250.24 351.39L250.35 351.27V351.5L250.42 351.57L250.48 351.49C253.39 348.36 302.77 297.28 398.9 286V255.64C398.9 255.64 397.55 255.55 395.09 255.52ZM358.29 283.18C287.71 300.32 253.29 339.23 250.2 342.89C247.09 339.23 212.69 300.32 142.11 283.18H142.47H143.13C151.51 283.44 208.96 286.66 250.28 325.53H250.33C291.45 286.67 348.89 283.45 357.27 283.19H357.93H358.29V283.18Z" fill="white"/>
<path d="M236.793 200.871V199.992H224.723V200.871C225.25 200.871 225.641 200.891 225.914 200.93C226.188 200.969 226.5 201.066 226.871 201.203C227.242 201.34 227.516 201.613 227.672 202.023C227.828 202.434 227.906 202.98 227.906 203.645V209.152C227.887 209.895 228.062 210.461 228.434 210.832V210.969H214.273V210.832C214.645 210.461 214.84 209.895 214.84 209.152V203.645C214.84 202.98 214.918 202.434 215.074 202.023C215.23 201.613 215.504 201.34 215.875 201.203C216.246 201.066 216.559 200.969 216.832 200.93C217.105 200.891 217.496 200.871 218.023 200.871V199.992H205.934V200.871C206.422 200.871 206.773 200.891 207.008 200.91C207.242 200.93 207.535 200.988 207.887 201.086C208.238 201.184 208.512 201.32 208.707 201.516C208.902 201.711 209.078 201.984 209.234 202.355C209.391 202.727 209.469 203.176 209.469 203.703V224.348C209.469 224.875 209.391 225.324 209.234 225.695C209.078 226.066 208.902 226.34 208.707 226.535C208.512 226.73 208.238 226.867 207.887 226.965C207.535 227.062 207.242 227.121 207.008 227.141C206.773 227.16 206.402 227.16 205.914 227.16V228.039H218.004V227.16C217.477 227.16 217.066 227.141 216.793 227.102C216.52 227.062 216.207 226.965 215.836 226.809C215.465 226.652 215.191 226.379 215.035 225.969C214.879 225.559 214.801 225.031 214.801 224.367V215.441C214.801 214.562 214.605 213.938 214.234 213.566V213.43H228.395V213.566C228.023 213.938 227.848 214.562 227.848 215.441V224.367C227.848 225.031 227.77 225.578 227.613 225.988C227.457 226.398 227.184 226.672 226.812 226.828C226.441 226.984 226.129 227.082 225.855 227.121C225.582 227.16 225.172 227.18 224.645 227.18V228.059H236.715V227.18C236.227 227.18 235.875 227.18 235.641 227.16C235.406 227.141 235.113 227.082 234.742 226.984C234.371 226.887 234.098 226.75 233.922 226.555C233.746 226.359 233.57 226.086 233.414 225.715C233.258 225.344 233.18 224.895 233.18 224.367V203.723C233.18 203.195 233.258 202.746 233.414 202.375C233.57 202.004 233.727 201.73 233.902 201.535C234.078 201.34 234.352 201.203 234.723 201.105C235.094 201.008 235.387 200.949 235.621 200.93C235.855 200.91 236.207 200.91 236.695 200.91L236.793 200.871ZM248.648 224.328V207.121C248.648 206.457 248.727 205.91 248.902 205.5C249.078 205.09 249.352 204.816 249.723 204.68C250.094 204.543 250.406 204.445 250.66 204.406C250.914 204.367 251.285 204.348 251.773 204.348V203.469H240.484V204.348C240.973 204.348 241.344 204.367 241.598 204.406C241.852 204.445 242.164 204.543 242.535 204.68C242.906 204.816 243.18 205.09 243.355 205.5C243.531 205.91 243.609 206.457 243.609 207.121V224.328C243.609 224.992 243.512 225.539 243.336 225.949C243.16 226.359 242.887 226.633 242.516 226.789C242.145 226.945 241.832 227.043 241.578 227.082C241.324 227.121 240.953 227.141 240.465 227.141V228.02H251.754V227.141C251.266 227.141 250.895 227.121 250.641 227.082C250.387 227.043 250.074 226.945 249.703 226.789C249.332 226.633 249.059 226.359 248.883 225.949C248.707 225.539 248.629 225.012 248.629 224.348L248.648 224.328ZM271.812 203H271.461C271.207 203.293 270.582 203.449 269.586 203.449H255.113V204.328C255.484 204.328 255.777 204.328 255.973 204.348C256.168 204.367 256.441 204.406 256.773 204.484C257.105 204.562 257.359 204.68 257.535 204.836C257.711 204.992 257.867 205.227 258.023 205.539C258.18 205.852 258.258 206.242 258.258 206.691V224.699C258.258 225.148 258.18 225.539 258.023 225.852C257.867 226.164 257.711 226.398 257.535 226.555C257.359 226.711 257.105 226.828 256.773 226.906C256.441 226.984 256.168 227.023 255.973 227.043C255.777 227.062 255.484 227.062 255.113 227.062V227.941H266.793V227.062C266.305 227.062 265.934 227.062 265.699 227.043C265.465 227.023 265.172 226.984 264.82 226.906C264.469 226.828 264.195 226.711 264 226.555C263.805 226.398 263.629 226.164 263.492 225.852C263.355 225.539 263.277 225.148 263.277 224.699V217.824C263.277 216.945 263.082 216.32 262.711 215.949V215.812H266.48C267.574 215.812 268.277 215.988 268.59 216.359C268.902 216.73 269.059 217.277 269.059 218H269.859V211.516H269.059C269.059 212.238 268.902 212.785 268.59 213.137C268.277 213.488 267.574 213.664 266.48 213.664H262.711V213.547C263.082 213.176 263.277 212.609 263.277 211.867V207.59C263.277 206.848 263.082 206.281 262.711 205.91V205.773H267.945C269.059 205.773 269.781 205.949 270.094 206.281C270.406 206.613 270.562 207.258 270.562 208.195L271.305 208.273L271.812 203ZM293.004 221.887C292.789 223.078 292.477 223.957 292.086 224.523C291.695 225.09 290.973 225.363 289.938 225.363H280.289L280.367 225.168C280.973 225.168 281.422 224.875 281.715 224.289L293.121 204.152V203.449H278.922C277.926 203.449 277.262 203.293 276.91 202.961H276.598L275.68 209.035L276.441 209.191C276.812 207.863 277.223 206.965 277.691 206.516C278.16 206.066 278.941 205.832 280.035 205.832H287.477L287.398 206.086C286.793 206.086 286.344 206.359 286.051 206.926L274.605 227.238V228H293.18L293.941 222.004L293.004 221.887Z" fill="white"/>
<path d="M327.86 238.92C335.63 241.67 342.47 241.48 347.51 234.15C351.57 228.23 351.38 222.38 347.64 216.47C343.11 209.34 336.48 208.94 329.02 211.01C333.53 202.83 342.51 200.32 349.77 205.67C353.84 208.67 356.97 212.94 360.57 216.6C364.01 220.11 367.5 223.6 370.39 226.47C366.12 230.47 361.23 235.21 356.15 239.76C353.631 242.169 350.851 244.289 347.86 246.08C340.22 250.31 331.94 247.35 327.86 238.92Z" fill="white"/>
<path d="M314.337 181.128C322.005 178.106 327.043 173.475 326.038 164.636C325.218 157.505 321.236 153.214 314.536 151.208C306.44 148.799 301.174 152.846 296.902 159.303C294.939 150.17 300.069 142.385 309.059 141.659C314.098 141.253 319.262 142.423 324.38 142.823C329.279 143.215 334.203 143.559 338.267 143.829C337.668 149.65 337.088 156.435 336.239 163.202C335.918 166.673 335.21 170.097 334.128 173.41C331.138 181.615 322.947 184.813 314.337 181.128Z" fill="white"/>
<path d="M188.72 181.128C181.052 178.106 176.014 173.475 177.019 164.636C177.839 157.505 181.821 153.214 188.52 151.208C196.617 148.799 201.883 152.846 206.155 159.303C208.118 150.17 202.987 142.385 193.998 141.659C188.958 141.253 183.795 142.423 178.677 142.823C173.778 143.215 168.854 143.559 164.79 143.829C165.389 149.65 165.969 156.435 166.818 163.202C167.139 166.673 167.847 170.097 168.928 173.41C171.919 181.615 180.11 184.813 188.72 181.128Z" fill="white"/>
<path d="M131 226.56C134 223.56 137.58 219.95 141.14 216.32C144.7 212.69 147.67 208.67 151.6 205.74C158.87 200.35 167.52 202.66 172.6 211.02C164.89 208.88 158.15 209.39 153.69 216.8C149.9 223.1 150.18 228.87 154.55 234.85C159.55 241.67 166.21 241.51 173.55 238.95C169.92 247.24 161.34 250.48 153.79 246.08C149.85 243.78 146.58 240.29 143.09 237.25C138.8 233.59 134.67 229.83 131 226.56Z" fill="white"/>
<path d="M236.88 150C227.88 144.78 225.63 135.95 231.24 128.18C233.64 124.86 236.9 122.18 239.78 119.18L250.6 108C255 112.27 260.13 117 265.01 122.05C267.511 124.478 269.686 127.221 271.48 130.21C275.48 137.3 272.82 144.96 264.67 150.07C267.2 141.72 266.59 134.69 258.58 130.07C252.31 126.41 246.5 127.29 240.94 131.39C234.54 136 234.6 142.46 236.88 150Z" fill="white"/>
<path d="M206.3 122.27C214.74 121.81 220.13 133.74 217.87 143.56C207.56 139.53 202.67 130.79 206.3 122.27Z" fill="white"/>
<path d="M294.88 122.25C300.76 129.12 292.09 140.92 283.62 143.55C281.47 132.49 286.01 123.89 294.88 122.25Z" fill="white"/>
<path d="M145.8 182.55C153.7 177.71 162.68 181.08 168.58 190.88C158.77 194.8 149.08 191.38 145.8 182.55Z" fill="white"/>
<path d="M355.55 182.61C352.83 191.21 344.2 194.47 333.03 191.1C336.81 182.54 349.88 176.24 355.55 182.61Z" fill="white"/>
<path d="M250.77 161.09C247.15 154.67 244.44 149.2 247.19 142.87C247.8 141.47 249.6 139.63 250.77 139.68C251.94 139.73 253.72 141.57 254.33 143C257.03 149.34 254.22 154.74 250.77 161.09Z" fill="white"/>
</svg>
